<?xml version="1.0" encoding="UTF-8" standalone="no"?>
<!-- Created with Inkscape (http://www.inkscape.org/) -->

<svg
   width="210mm"
   height="297mm"
   viewBox="0 0 210 297"
   version="1.1"
   id="svg1"
   xml:space="preserve"
   inkscape:export-filename="SecondImage.svg"
   inkscape:export-xdpi="96"
   inkscape:export-ydpi="96"
   inkscape:version="1.4.2 (f4327f4, 2025-05-13)"
   sodipodi:docname="SecondImage.svg"
   xmlns:inkscape="http://www.inkscape.org/namespaces/inkscape"
   xmlns:sodipodi="http://sodipodi.sourceforge.net/DTD/sodipodi-0.dtd"
   xmlns="http://www.w3.org/2000/svg"
   xmlns:svg="http://www.w3.org/2000/svg"><sodipodi:namedview
     id="namedview1"
     pagecolor="#ffffff"
     bordercolor="#000000"
     borderopacity="0.25"
     inkscape:showpageshadow="2"
     inkscape:pageopacity="0.0"
     inkscape:pagecheckerboard="0"
     inkscape:deskcolor="#d1d1d1"
     inkscape:document-units="mm"
     inkscape:zoom="0.44809905"
     inkscape:cx="396.11778"
     inkscape:cy="561.25984"
     inkscape:window-width="1366"
     inkscape:window-height="705"
     inkscape:window-x="-8"
     inkscape:window-y="-8"
     inkscape:window-maximized="1"
     inkscape:current-layer="layer1"><inkscape:page
       x="0"
       y="0"
       width="210"
       height="297"
       id="page2"
       margin="0"
       bleed="0" /></sodipodi:namedview><defs
     id="defs1" /><g
     inkscape:label="Layer 1"
     inkscape:groupmode="layer"
     id="layer1"><path
       style="fill:#fefefe;stroke:#010101;stroke-width:1.165"
       d="m 55.502981,189.53678 -6.495028,-10.62823 -1.180915,-10.62823 22.437375,-4.72366 12.399603,6.49503 6.495028,1.18091 6.495029,4.1332 2.36183,8.85686 -2.36183,13.58052 -1.771369,5.31411 1.180914,1.77138 -12.399602,17.12326 -9.447318,-5.31412 -11.809143,-11.80914 -5.314116,-6.49504 z"
       id="path1" /><path
       style="fill:#fefefe;stroke:#010101;stroke-width:1.165"
       d="m 149.97614,193.66998 15.94235,18.30417 -20.07555,13.58052 c 0,0 -30.70378,12.3996 -50.779322,1.18091 C 74.98807,215.5169 83.254473,221.42147 83.254473,221.42147 l 10.628231,-17.12326 c 0,0 33.065606,14.17097 56.093436,-10.62823 z"
       id="path2" /><path
       style="fill:#fefefe;stroke:#010101;stroke-width:1.165"
       d="m 165.32803,209.02187 c 0,0 14.76143,-14.76143 20.666,-30.70378 5.90458,-15.94235 0.59046,0.59046 0.59046,0.59046 0,0 7.67595,-34.24652 -1.77137,-41.33201 -9.44732,-7.08549 0,0.59046 0,0.59046 l -0.59046,-3.54275 -14.17097,4.1332 -3.54275,15.35189 -13.58051,9.44732 c 0,0 -10.03778,4.72366 -6.49503,16.5328 3.54274,11.80915 0,-1.18091 0,-1.18091 0,0 3.54274,4.1332 4.72366,13.58051 1.18091,9.44732 -0.59046,0.59046 -0.59046,0.59046 z"
       id="path3" /><path
       style="fill:#fefefe;stroke:#010101;stroke-width:1.165"
       d="m 140.52882,108.05368 8.26641,-18.894636 27.75149,21.846916 9.44731,25.38966 -16.5328,1.77138 -11.21869,-18.89464 c 0,0 -14.17097,-13.58051 -17.71372,-11.21868 z"
       id="path4" /><path
       style="fill:#fefefe;stroke:#010101;stroke-width:1.165"
       d="m 87.387672,116.32008 c 0,0 25.980118,-19.485092 51.369778,-10.03777 25.38966,9.44731 -0.59045,0.59045 -0.59045,0.59045 L 148.79523,87.387672 138.75745,83.844931 111.00596,82.073558 88.568587,87.97813 74.397612,99.196817 71.445328,101.55865 Z"
       id="path5" /><path
       style="fill:#fefefe;stroke:#010101;stroke-width:1.165"
       d="m 86.797215,115.72962 -14.761429,21.25646 -4.133202,16.5328 2.952287,12.39961 -21.256461,2.95228 -4.133202,-24.7992 5.314114,-19.48509 8.856861,-14.17097 11.218688,-8.85686 z"
       id="path6" /><path
       style="fill:#fefefe;stroke:#010101;stroke-width:1.165"
       d="M 51.960237,189.53678 39.560634,177.13717 24.799204,158.24254 15.942346,135.80517 V 115.13916 L 22.437375,90.339959 32.475148,74.397612 49.59841,60.817098 l 23.618288,-6.495031 17.713719,-4.1332 21.256463,4.723657 15.94234,8.266401 10.03778,14.170974 -1.18092,5.314117 11.80915,0.590457 -24.20875,-32.475151 -31.294234,-8.266401 -28.341949,4.723659 -23.61829,8.266401 -12.99006,14.761432 -14.76143,17.123259 -5.3141154,20.666008 -1.7713719,24.20874 6.4950293,20.66601 17.713717,27.16103 11.218688,12.99006 7.675946,5.31411 5.904571,-0.59045 1.180915,-8.85686 z"
       id="path7" /></g></svg>
