<?xml version="1.0" encoding="UTF-8" standalone="no"?>
<!-- Created with Inkscape (http://www.inkscape.org/) -->

<svg
   width="210mm"
   height="297mm"
   viewBox="0 0 210 297"
   version="1.1"
   id="svg1"
   xml:space="preserve"
   inkscape:export-filename="Downloads\SecondImage.svg"
   inkscape:export-xdpi="96"
   inkscape:export-ydpi="96"
   inkscape:version="1.4.2 (f4327f4, 2025-05-13)"
   sodipodi:docname="SecondImage.svg"
   xmlns:inkscape="http://www.inkscape.org/namespaces/inkscape"
   xmlns:sodipodi="http://sodipodi.sourceforge.net/DTD/sodipodi-0.dtd"
   xmlns="http://www.w3.org/2000/svg"
   xmlns:svg="http://www.w3.org/2000/svg"><sodipodi:namedview
     id="namedview1"
     pagecolor="#ffffff"
     bordercolor="#000000"
     borderopacity="0.25"
     inkscape:showpageshadow="2"
     inkscape:pageopacity="0.0"
     inkscape:pagecheckerboard="0"
     inkscape:deskcolor="#d1d1d1"
     inkscape:document-units="mm"
     inkscape:zoom="0.44809905"
     inkscape:cx="396.11778"
     inkscape:cy="561.25984"
     inkscape:window-width="1366"
     inkscape:window-height="705"
     inkscape:window-x="-8"
     inkscape:window-y="-8"
     inkscape:window-maximized="1"
     inkscape:current-layer="layer1"><inkscape:page
       x="0"
       y="0"
       width="210"
       height="297"
       id="page2"
       margin="0"
       bleed="0" /></sodipodi:namedview><defs
     id="defs1" /><g
     inkscape:label="Layer 1"
     inkscape:groupmode="layer"
     id="layer1"><path
       style="fill:#fefefe;stroke:#010101;stroke-width:1.165"
       d="m 76.759442,218.46918 17.713719,5.90457 c 0,0 -1.180915,-16.5328 5.314114,-17.12325 6.495035,-0.59046 0,-0.59046 0,-0.59046 l -17.123259,-47.23658 -20.075549,9.44731 z"
       id="path7" /><path
       style="fill:#fefefe;stroke:#010101;stroke-width:1.165"
       d="m 57.864811,98.60636 h 23.61829 l -1.180915,31.29423 4.133199,27.16104 -21.25646,11.21869 -5.314114,-29.52287 -2.36183,-28.9324 z"
       id="path8" /><path
       style="fill:#fefefe;stroke:#010101;stroke-width:1.165"
       d="m 96.834988,43.103379 4.133202,31.884691 c 0,0 -11.218688,8.856861 -18.304174,23.027833 -7.085489,14.170977 0.590457,-1.180915 0.590457,-1.180915 H 56.683896 c 0,0 13.580517,-54.912524 40.151092,-53.731609 z"
       id="path9" /><path
       style="fill:#fefefe;stroke:#010101;stroke-width:1.165"
       d="m 96.834988,41.922464 4.133202,33.656063 c 0,0 15.35189,-3.542741 31.29423,9.447316 15.94235,12.99006 -2.36183,0 -2.36183,0 l 20.07555,-7.085486 c 0,0 -18.30417,-40.151092 -53.141152,-36.017893 z"
       id="path10" /><path
       style="fill:#fefefe;stroke:#010101;stroke-width:1.165"
       d="m 144.07157,139.34791 18.30417,-2.95229 -4.72365,-27.75149 -7.67595,-32.475145 -20.666,10.62823 8.85686,22.437375 3.54274,15.94235 z"
       id="path11" /><path
       style="fill:#fefefe;stroke:#010101;stroke-width:1.165"
       d="m 144.66203,139.93837 -4.72366,31.29423 1.77137,24.20875 c 0,0 5.31412,-9.44732 17.12326,-0.59046 11.80915,8.85686 -1.18091,0 -1.18091,0 l 4.72365,-24.20874 -0.59045,-25.98012 -1.18092,-8.85686 z"
       id="path12" /><path
       style="fill:#fefefe;stroke:#010101;stroke-width:1.165"
       d="m 136.98608,210.20278 c 0,0 10.62823,-11.80915 20.07555,2.95229 9.44731,14.76143 -1.18092,-2.36183 -1.18092,-2.36183 0,0 6.49503,10.62823 3.54275,38.37972 -2.95229,27.75149 -1.18092,0 -1.18092,0 l 2.36183,7.67594 4.72366,-2.95228 1.77137,-14.76143 0.59046,-24.20875 -7.08549,-14.17098 -7.67594,-8.85685 -12.39961,2.36183 -7.08548,11.80914 z"
       id="path13" /><path
       style="fill:#fefefe;stroke:#010101;stroke-width:1.165"
       d="m 73.807155,217.28827 c 0,0 -15.351887,5.31411 -2.952284,12.3996 12.399602,7.08549 -1.180915,-1.18091 -1.180915,-1.18091 l 19.485088,8.85685 6.495029,5.90458 4.133202,14.76143 5.904575,2.95228 -2.95229,-24.7992 2.36183,-13.58052 5.31412,-7.67594 12.3996,1.77137 0.59046,-2.95229 -8.85686,-10.62823 c 0,0 -8.2664,-2.36183 -13.58052,2.95229 -5.314117,5.31411 -0.59046,3.54274 -5.904572,5.31411 -5.314116,1.77138 5.314112,-2.95228 5.314112,-2.95228 0,0 -7.675941,6.49503 -6.495026,13.58052 1.180914,7.08548 0,0.59045 0,0.59045 z"
       id="path14" /><path
       style="fill:#fefefe;stroke:#010101;stroke-width:1.165"
       d="m 56.683896,86.797215 -10.62823,17.123265 -5.904574,14.17097 -2.952284,15.35189 -2.952287,22.43737 -0.590458,33.06561 2.36183,28.93241 10.037773,38.97017 12.399602,1.77138 -2.952287,-9.44732 6.495029,-17.12326 c 0,0 1.180915,-10.62823 -5.904571,-6.49503 -7.085486,4.1332 -2.952287,0.59046 -2.952287,0.59046 l -4.723657,4.72365 -2.361829,-28.34194 -2.952287,-18.89463 -2.952287,-21.25647 2.361829,-29.52286 5.314117,-18.89463 4.133199,-10.03777 3.542744,-2.95229 1.771372,-4.133202 z"
       id="path15" /></g></svg>
