<svg version="1.2" xmlns="http://www.w3.org/2000/svg" viewBox="0 0 638 620" width="638" height="620"><style>.a{opacity:.25;mix-blend-mode:multiply;fill:#8934a7}.b{fill:#e8505b}.c{fill:#e179a3}.d{fill:none;stroke:#333;stroke-linecap:round;stroke-miterlimit:10;stroke-width:2}.e{fill:#263238}.f{fill:#fff}.g{fill:#ebdae0}.h{mix-blend-mode:multiply;fill:#cfcfcf}.i{opacity:.3;fill:#e0e0e0}.j{fill:#ffb75d}.k{fill:#e0e0e0}.l{fill:none;stroke:#e0e0e0;stroke-linecap:round;stroke-miterlimit:10;stroke-width:1.5}.m{fill:none;stroke:#fff;stroke-miterlimit:10;stroke-width:2}</style><path class="a" d="m245.6 517.6h-58.7v-360l58.7-32.4z"/><path fill-rule="evenodd" class="a" d="m186.9 358.5v228.8h-49.1v-228.8zm-44.9 155.1h37.3v-5.4h-37.3zm0-10h37.3v-5.5h-37.3zm0-9.9h37.3v-5.5h-37.3zm0-10h37.3v-5.4h-37.3zm0-10h37.3v-5.5h-37.3zm0-9.9h37.3v-5.5h-37.3zm0-10h37.3v-5.5h-37.3zm0-9.9h37.3v-5.5h-37.3zm0-10h37.3v-5.4h-37.3zm0-10h37.3v-5.5h-37.3zm0-9.9h37.3v-5.5h-37.3zm0-10h37.3v-5.4h-37.3zm0-10h37.3v-5.5h-37.3zm0-9.9h37.3v-5.5h-37.3zm0-10h37.3v-5.4h-37.3z"/><path fill-rule="evenodd" class="a" d="m603.9 457v130.5h-48.1v-130.5zm-43.9 88.5h36.5v-3.2h-36.5zm0-5.6h36.5v-3.2h-36.5zm0-5.6h36.5v-3.2h-36.5zm0-5.6h36.5v-3.2h-36.5zm0-5.6h36.5v-3.2h-36.5zm0-5.6h36.5v-3.2h-36.5zm0-5.7h36.5v-3.1h-36.5zm0-5.7h36.5v-3.1h-36.5zm0-5.7h36.5v-3.1h-36.5zm0-5.7h36.5v-3.1h-36.5zm0-5.7h36.5v-3.1h-36.5zm0-5.7h36.5v-3.1h-36.5zm0-5.7h36.5v-3.1h-36.5zm0-5.7h36.5v-3.1h-36.5zm0-5.7h36.5v-3.1h-36.5z"/><path class="a" d="m517.7 212.9v-5.1h-26.7-18.9v5.1h2.3v7.4h-2.3v5h2.3v7.4h-2.3v5h2.3v7.4h-2.3v5h2.3v7.4h-2.3v5.1h2.3v7.3h-2.3v5.1h2.3v7.4h-2.3v5h2.3v7.2h-2.3v0.2 4.8 0.2h2.3v7.2h-2.3v5h2.3v7.4h-2.3v5.1h2.3v7.3h-2.3v5.1h2.3v7.4h-2.3v5h2.3v7.4h-2.3v5h2.3v7.4h-2.3v5h2.3v7.4h-2.3v4.8 0.3h45.6v-5.1h-3.1v-7.4h3.1v-5h-3.1v-7.4h3.1v-5h-3.1v-7.4h3.1v-5h-3.1v-7.4h3.1v-5.1h-3.1v-7.3h3.1v-5.1h-3.1v-7.4h3.1v-5h-3.1v-7.2h3.1v-0.2-4.8-0.2h-3.1v-7.2h3.1v-5h-3.1v-7.4h3.1v-5.1h-3.1v-7.3h3.1v-5.1h-3.1v-7.4h3.1v-5h-3.1v-7.4h3.1v-5h-3.1v-7.4h3.1v-5h-3.1v-7.4z"/><path fill-rule="evenodd" class="a" d="m326.5 87.3l-26.1-38.8-1.2-45.8-1.2 45.8-26.2 38.8h-6.4v314h67.6v-314zm-50.1 299.4h-5.2v-28.8h5.2zm0-37.5h-5.2v-28.7h5.2zm0-37.5h-5.2v-28.7h5.2zm0-37.6h-5.2v-28.7h5.2zm0-37.5h-5.2v-28.7h5.2zm0-37.6h-5.2v-28.7h5.2zm0-37.5h-5.2v-28.7h5.2zm0-37.6h-5.2v-28.7h5.2zm10.1 262.7h-5.1v-28.7h5.1zm0-37.5h-5.1v-28.8h5.1zm0-37.5h-5.1v-28.7h5.1zm0-37.5h-5.1v-28.8h5.1zm0-37.5h-5.1v-28.7h5.1zm0-37.5h-5.1v-28.7h5.1zm0-37.6h-5.1v-28.7h5.1zm0-37.5h-5.1v-28.7h5.1zm10.2 262.6h-5.2v-28.7h5.2zm0-37.5h-5.2v-28.7h5.2zm0-37.5h-5.2v-28.8h5.2zm0-37.5h-5.2v-28.7h5.2zm0-37.5h-5.2v-28.8h5.2zm0-37.5h-5.2v-28.7h5.2zm0-37.5h-5.2v-28.7h5.2zm0-37.6h-5.2v-28.7h5.2zm10.1 262.7h-5.1v-28.7h5.1zm0-37.6h-5.1v-28.7h5.1zm0-37.5h-5.1v-28.7h5.1zm0-37.6h-5.1v-28.7h5.1zm0-37.5h-5.1v-28.7h5.1zm0-37.5h-5.1v-28.8h5.1zm0-37.5h-5.1v-28.7h5.1zm0-37.5h-5.1v-28.8h5.1zm10.2 262.7h-5.2v-28.7h5.2zm0-37.5h-5.2v-28.7h5.2zm0-37.6h-5.2v-28.7h5.2zm0-37.5h-5.2v-28.7h5.2zm0-37.6h-5.2v-28.7h5.2zm0-37.5h-5.2v-28.7h5.2zm0-37.6h-5.2v-28.7h5.2zm0-37.5h-5.2v-28.7h5.2zm10.1 262.7h-5.1v-28.8h5.1zm0-37.5h-5.1v-28.7h5.1zm0-37.5h-5.1v-28.8h5.1zm0-37.5h-5.1v-28.7h5.1zm0-37.5h-5.1v-28.7h5.1zm0-37.6h-5.1v-28.7h5.1zm0-37.5h-5.1v-28.7h5.1zm0-37.6h-5.1v-28.7h5.1z"/><path fill-rule="evenodd" class="a" d="m113 272.8v9h-14.6v8.9h-13.3v9h-12.8v287.6h65.5v-287.6-9-8.9-9zm-24 305.8h-10.5v-10.5h10.5zm0-16.4h-10.5v-10.5h10.5zm0-16.4h-10.5v-10.6h10.5zm0-16.4h-10.5v-10.5h10.5zm0-16.4h-10.5v-10.5h10.5zm0-16.4h-10.5v-10.6h10.5zm0-16.4h-10.5v-10.5h10.5zm0-16.4h-10.5v-10.5h10.5zm0-16.4h-10.5v-10.6h10.5zm0-16.4h-10.5v-10.5h10.5zm0-16.4h-10.5v-10.5h10.5zm0-16.4h-10.5v-10.6h10.5zm0-16.4h-10.5v-10.5h10.5zm0-16.4h-10.5v-10.5h10.5zm0-16.4h-10.5v-10.5h10.5zm0-16.5h-10.5v-10.5h10.5zm0-16.4h-10.5v-10.5h10.5zm14.2 262.5h-10.5v-10.5h10.5zm0-16.4h-10.5v-10.6h10.5zm0-16.4h-10.5v-10.5h10.5zm0-16.4h-10.5v-10.5h10.5zm0-16.4h-10.5v-10.5h10.5zm0-16.5h-10.5v-10.5h10.5zm0-16.4h-10.5v-10.5h10.5zm0-16.4h-10.5v-10.5h10.5zm0-16.5h-10.5v-10.5h10.5zm0-16.4h-10.5v-10.5h10.5zm0-16.4h-10.5v-10.5h10.5zm0-16.4h-10.5v-10.6h10.5zm0-16.4h-10.5v-10.5h10.5zm0-16.4h-10.5v-10.5h10.5zm0-16.4h-10.5v-10.6h10.5zm0-16.4h-10.5v-10.5h10.5zm0-16.4h-10.5v-10.5h10.5zm14.1 262.5h-10.5v-10.5h10.5zm0-16.4h-10.5v-10.6h10.5zm0-16.4h-10.5v-10.5h10.5zm0-16.4h-10.5v-10.5h10.5zm0-16.4h-10.5v-10.6h10.5zm0-16.4h-10.5v-10.5h10.5zm0-16.4h-10.5v-10.5h10.5zm0-16.4h-10.5v-10.6h10.5zm0-16.4h-10.5v-10.5h10.5zm0-16.4h-10.5v-10.5h10.5zm0-16.4h-10.5v-10.6h10.5zm0-16.4h-10.5v-10.5h10.5zm0-16.4h-10.5v-10.5h10.5zm0-16.4h-10.5v-10.6h10.5zm0-16.4h-10.5v-10.5h10.5zm0-16.4h-10.5v-10.5h10.5zm0-16.4h-10.5v-10.6h10.5zm14.1 262.6h-10.5v-10.6h10.5zm0-16.4h-10.5v-10.5h10.5zm0-16.4h-10.5v-10.5h10.5zm0-16.4h-10.5v-10.6h10.5zm0-16.4h-10.5v-10.5h10.5zm0-16.4h-10.5v-10.5h10.5zm0-16.4h-10.5v-10.6h10.5zm0-16.4h-10.5v-10.5h10.5zm0-16.4h-10.5v-10.5h10.5zm0-16.4h-10.5v-10.5h10.5zm0-16.5h-10.5v-10.5h10.5zm0-16.4h-10.5v-10.5h10.5zm0-16.4h-10.5v-10.5h10.5zm0-16.4h-10.5v-10.6h10.5zm0-16.4h-10.5v-10.5h10.5zm-0.5-13.6h-10v-13.3h10zm0.5-19.2h-10.5v-10.5h10.5z"/><path fill-rule="evenodd" class="a" d="m438.2 128.8v-13.8h4.2v-3.4h-16.9v-12.4h-54.1v12.4h-16.9v3.4h4.3v13.8h-7.5v422.2h94.3v-422.2zm-75.8 416.8h-7.2v-7.2h7.2zm0-10.6h-7.2v-7.2h7.2zm0-10.7h-7.2v-7.2h7.2zm0-10.6h-7.2v-7.2h7.2zm0-10.6h-7.2v-7.2h7.2zm0-10.7h-7.2v-7.2h7.2zm0-10.6h-7.2v-7.2h7.2zm0-10.6h-7.2v-7.2h7.2zm0-10.6h-7.2v-7.3h7.2zm0-10.6h-7.2v-7.2h7.2zm0-10.6h-7.2v-7.2h7.2zm0-10.6h-7.2v-7.2h7.2zm0-10.7h-7.2v-7.2h7.2zm0-10.6h-7.2v-7.2h7.2zm0-10.6h-7.2v-7.2h7.2zm0-10.7h-7.2v-7.2h7.2zm0-10.6h-7.2v-7.2h7.2zm0-10.6h-7.2v-7.2h7.2zm0-10.6h-7.2v-7.2h7.2zm0-10.7h-7.2v-7.2h7.2zm0-10.6h-7.2v-7.2h7.2zm0-10.6h-7.2v-7.2h7.2zm0-10.7h-7.2v-7.2h7.2zm0-10.6h-7.2v-7.2h7.2zm0-10.6h-7.2v-7.2h7.2zm0-10.6h-7.2v-7.3h7.2zm0-10.6h-7.2v-7.2h7.2zm0-10.6h-7.2v-7.2h7.2zm0-10.6h-7.2v-7.2h7.2zm0-10.7h-7.2v-7.2h7.2zm0-10.6h-7.2v-7.2h7.2zm0-10.6h-7.2v-7.2h7.2zm0-10.7h-7.2v-7.2h7.2zm0-10.6h-7.2v-7.2h7.2zm0-10.6h-7.2v-7.2h7.2zm0-10.6h-7.2v-7.2h7.2zm0-10.7h-7.2v-7.2h7.2zm0-10.6h-7.2v-7.2h7.2zm0-10.6h-7.2v-7.2h7.2zm11.4 403.7h-7.2v-7.2h7.2zm0-10.6h-7.2v-7.2h7.2zm0-10.6h-7.2v-7.2h7.2zm0-10.7h-7.2v-7.2h7.2zm0-10.6h-7.2v-7.2h7.2zm0-10.6h-7.2v-7.2h7.2zm0-10.6h-7.2v-7.2h7.2zm0-10.7h-7.2v-7.2h7.2zm0-10.6h-7.2v-7.2h7.2zm0-10.6h-7.2v-7.2h7.2zm0-10.7h-7.2v-7.2h7.2zm0-10.6h-7.2v-7.2h7.2zm0-10.6h-7.2v-7.2h7.2zm0-10.6h-7.2v-7.2h7.2zm0-10.7h-7.2v-7.2h7.2zm0-10.6h-7.2v-7.2h7.2zm0-10.6h-7.2v-7.2h7.2zm0-10.7h-7.2v-7.2h7.2zm0-10.6h-7.2v-7.2h7.2zm0-10.6h-7.2v-7.2h7.2zm0-10.7h-7.2v-7.2h7.2zm0-10.6h-7.2v-7.2h7.2zm0-10.6h-7.2v-7.2h7.2zm0-10.6h-7.2v-7.2h7.2zm0-10.7h-7.2v-7.2h7.2zm0-10.6h-7.2v-7.2h7.2zm0-10.6h-7.2v-7.2h7.2zm0-10.7h-7.2v-7.2h7.2zm0-10.6h-7.2v-7.2h7.2zm0-10.6h-7.2v-7.2h7.2zm0-10.6h-7.2v-7.3h7.2zm0-10.6h-7.2v-7.2h7.2zm0-10.6h-7.2v-7.2h7.2zm0-10.6h-7.2v-7.2h7.2zm0-10.7h-7.2v-7.2h7.2zm0-10.6h-7.2v-7.2h7.2zm0-10.6h-7.2v-7.2h7.2zm0-10.7h-7.2v-7.2h7.2zm0-10.6h-7.2v-7.2h7.2zm11.3 403.8h-7.2v-7.2h7.2zm0-10.6h-7.2v-7.2h7.2zm0-10.7h-7.2v-7.2h7.2zm0-10.6h-7.2v-7.2h7.2zm0-10.6h-7.2v-7.2h7.2zm0-10.7h-7.2v-7.2h7.2zm0-10.6h-7.2v-7.2h7.2zm0-10.6h-7.2v-7.2h7.2zm0-10.6h-7.2v-7.3h7.2zm0-10.6h-7.2v-7.2h7.2zm0-10.6h-7.2v-7.2h7.2zm0-10.6h-7.2v-7.2h7.2zm0-10.7h-7.2v-7.2h7.2zm0-10.6h-7.2v-7.2h7.2zm0-10.6h-7.2v-7.2h7.2zm0-10.7h-7.2v-7.2h7.2zm0-10.6h-7.2v-7.2h7.2zm0-10.6h-7.2v-7.2h7.2zm0-10.6h-7.2v-7.2h7.2zm0-10.7h-7.2v-7.2h7.2zm0-10.6h-7.2v-7.2h7.2zm0-10.6h-7.2v-7.2h7.2zm0-10.7h-7.2v-7.2h7.2zm0-10.6h-7.2v-7.2h7.2zm0-10.6h-7.2v-7.2h7.2zm0-10.6h-7.2v-7.3h7.2zm0-10.6h-7.2v-7.2h7.2zm0-10.6h-7.2v-7.2h7.2zm0-10.6h-7.2v-7.2h7.2zm0-10.7h-7.2v-7.2h7.2zm0-10.6h-7.2v-7.2h7.2zm0-10.6h-7.2v-7.2h7.2zm0-10.7h-7.2v-7.2h7.2zm0-10.6h-7.2v-7.2h7.2zm0-10.6h-7.2v-7.2h7.2zm0-10.6h-7.2v-7.2h7.2zm0-10.7h-7.2v-7.2h7.2zm0-10.6h-7.2v-7.2h7.2zm0-10.6h-7.2v-7.2h7.2zm11.4 403.7h-7.2v-7.2h7.2zm0-10.6h-7.2v-7.2h7.2zm0-10.6h-7.2v-7.2h7.2zm0-10.6h-7.2v-7.3h7.2zm0-10.6h-7.2v-7.2h7.2zm0-10.6h-7.2v-7.2h7.2zm0-10.6h-7.2v-7.2h7.2zm0-10.7h-7.2v-7.2h7.2zm0-10.6h-7.2v-7.2h7.2zm0-10.6h-7.2v-7.2h7.2zm0-10.7h-7.2v-7.2h7.2zm0-10.6h-7.2v-7.2h7.2zm0-10.6h-7.2v-7.2h7.2zm0-10.6h-7.2v-7.2h7.2zm0-10.7h-7.2v-7.2h7.2zm0-10.6h-7.2v-7.2h7.2zm0-10.6h-7.2v-7.2h7.2zm0-10.7h-7.2v-7.2h7.2zm0-10.6h-7.2v-7.2h7.2zm0-10.6h-7.2v-7.2h7.2zm0-10.7h-7.2v-7.2h7.2zm0-10.6h-7.2v-7.2h7.2zm0-10.6h-7.2v-7.2h7.2zm0-10.6h-7.2v-7.2h7.2zm0-10.7h-7.2v-7.2h7.2zm0-10.6h-7.2v-7.2h7.2zm0-10.6h-7.2v-7.2h7.2zm0-10.7h-7.2v-7.2h7.2zm0-10.6h-7.2v-7.2h7.2zm0-10.6h-7.2v-7.2h7.2zm0-10.6h-7.2v-7.3h7.2zm0-10.6h-7.2v-7.2h7.2zm0-10.6h-7.2v-7.2h7.2zm0-10.6h-7.2v-7.2h7.2zm0-10.7h-7.2v-7.2h7.2zm0-10.6h-7.2v-7.2h7.2zm0-10.6h-7.2v-7.2h7.2zm0-10.7h-7.2v-7.2h7.2zm0-10.6h-7.2v-7.2h7.2zm11.3 403.8h-7.2v-7.2h7.2zm0-10.6h-7.2v-7.2h7.2zm0-10.7h-7.2v-7.2h7.2zm0-10.6h-7.2v-7.2h7.2zm0-10.6h-7.2v-7.2h7.2zm0-10.7h-7.2v-7.2h7.2zm0-10.6h-7.2v-7.2h7.2zm0-10.6h-7.2v-7.2h7.2zm0-10.6h-7.2v-7.3h7.2zm0-10.6h-7.2v-7.2h7.2zm0-10.6h-7.2v-7.2h7.2zm0-10.6h-7.2v-7.2h7.2zm0-10.7h-7.2v-7.2h7.2zm0-10.6h-7.2v-7.2h7.2zm0-10.6h-7.2v-7.2h7.2zm0-10.7h-7.2v-7.2h7.2zm0-10.6h-7.2v-7.2h7.2zm0-10.6h-7.2v-7.2h7.2zm0-10.6h-7.2v-7.2h7.2zm0-10.7h-7.2v-7.2h7.2zm0-10.6h-7.2v-7.2h7.2zm0-10.6h-7.2v-7.2h7.2zm0-10.7h-7.2v-7.2h7.2zm0-10.6h-7.2v-7.2h7.2zm0-10.6h-7.2v-7.2h7.2zm0-10.6h-7.2v-7.3h7.2zm0-10.6h-7.2v-7.2h7.2zm0-10.6h-7.2v-7.2h7.2zm0-10.6h-7.2v-7.2h7.2zm0-10.7h-7.2v-7.2h7.2zm0-10.6h-7.2v-7.2h7.2zm0-10.6h-7.2v-7.2h7.2zm0-10.7h-7.2v-7.2h7.2zm0-10.6h-7.2v-7.2h7.2zm0-10.6h-7.2v-7.2h7.2zm0-10.6h-7.2v-7.2h7.2zm0-10.7h-7.2v-7.2h7.2zm0-10.6h-7.2v-7.2h7.2zm0-10.6h-7.2v-7.2h7.2zm11.4 403.7h-7.2v-7.2h7.2zm0-10.6h-7.2v-7.2h7.2zm0-10.6h-7.2v-7.2h7.2zm0-10.6h-7.2v-7.3h7.2zm0-10.6h-7.2v-7.2h7.2zm0-10.6h-7.2v-7.2h7.2zm0-10.6h-7.2v-7.2h7.2zm0-10.7h-7.2v-7.2h7.2zm0-10.6h-7.2v-7.2h7.2zm0-10.6h-7.2v-7.2h7.2zm0-10.7h-7.2v-7.2h7.2zm0-10.6h-7.2v-7.2h7.2zm0-10.6h-7.2v-7.2h7.2zm0-10.6h-7.2v-7.2h7.2zm0-10.7h-7.2v-7.2h7.2zm0-10.6h-7.2v-7.2h7.2zm0-10.6h-7.2v-7.2h7.2zm0-10.7h-7.2v-7.2h7.2zm0-10.6h-7.2v-7.2h7.2zm0-10.6h-7.2v-7.2h7.2zm0-10.7h-7.2v-7.2h7.2zm0-10.6h-7.2v-7.2h7.2zm0-10.6h-7.2v-7.2h7.2zm0-10.6h-7.2v-7.2h7.2zm0-10.7h-7.2v-7.2h7.2zm0-10.6h-7.2v-7.2h7.2zm0-10.6h-7.2v-7.2h7.2zm0-10.7h-7.2v-7.2h7.2zm0-10.6h-7.2v-7.2h7.2zm0-10.6h-7.2v-7.2h7.2zm0-10.6h-7.2v-7.3h7.2zm0-10.6h-7.2v-7.2h7.2zm0-10.6h-7.2v-7.2h7.2zm0-10.6h-7.2v-7.2h7.2zm0-10.7h-7.2v-7.2h7.2zm0-10.6h-7.2v-7.2h7.2zm0-10.6h-7.2v-7.2h7.2zm0-10.7h-7.2v-7.2h7.2zm0-10.6h-7.2v-7.2h7.2zm11.3 403.8h-7.2v-7.2h7.2zm0-10.6h-7.2v-7.2h7.2zm0-10.7h-7.2v-7.2h7.2zm0-10.6h-7.2v-7.2h7.2zm0-10.6h-7.2v-7.2h7.2zm0-10.7h-7.2v-7.2h7.2zm0-10.6h-7.2v-7.2h7.2zm0-10.6h-7.2v-7.2h7.2zm0-10.6h-7.2v-7.3h7.2zm0-10.6h-7.2v-7.2h7.2zm0-10.6h-7.2v-7.2h7.2zm0-10.6h-7.2v-7.2h7.2zm0-10.7h-7.2v-7.2h7.2zm0-10.6h-7.2v-7.2h7.2zm0-10.6h-7.2v-7.2h7.2zm0-10.7h-7.2v-7.2h7.2zm0-10.6h-7.2v-7.2h7.2zm0-10.6h-7.2v-7.2h7.2zm0-10.6h-7.2v-7.2h7.2zm0-10.7h-7.2v-7.2h7.2zm0-10.6h-7.2v-7.2h7.2zm0-10.6h-7.2v-7.2h7.2zm0-10.7h-7.2v-7.2h7.2zm0-10.6h-7.2v-7.2h7.2zm0-10.6h-7.2v-7.2h7.2zm0-10.6h-7.2v-7.3h7.2zm0-10.6h-7.2v-7.2h7.2zm0-10.6h-7.2v-7.2h7.2zm0-10.6h-7.2v-7.2h7.2zm0-10.7h-7.2v-7.2h7.2zm0-10.6h-7.2v-7.2h7.2zm0-10.6h-7.2v-7.2h7.2zm0-10.7h-7.2v-7.2h7.2zm0-10.6h-7.2v-7.2h7.2zm0-10.6h-7.2v-7.2h7.2zm0-10.6h-7.2v-7.2h7.2zm0-10.7h-7.2v-7.2h7.2zm0-10.6h-7.2v-7.2h7.2zm0-10.6h-7.2v-7.2h7.2zm11.4 403.7h-7.3v-7.2h7.3zm0-10.6h-7.3v-7.2h7.3zm0-10.6h-7.3v-7.2h7.3zm0-10.6h-7.3v-7.3h7.3zm0-10.6h-7.3v-7.2h7.3zm0-10.6h-7.3v-7.2h7.3zm0-10.6h-7.3v-7.2h7.3zm0-10.7h-7.3v-7.2h7.3zm0-10.6h-7.3v-7.2h7.3zm0-10.6h-7.3v-7.2h7.3zm0-10.7h-7.3v-7.2h7.3zm0-10.6h-7.3v-7.2h7.3zm0-10.6h-7.3v-7.2h7.3zm0-10.6h-7.3v-7.2h7.3zm0-10.7h-7.3v-7.2h7.3zm0-10.6h-7.3v-7.2h7.3zm0-10.6h-7.3v-7.2h7.3zm0-10.7h-7.3v-7.2h7.3zm0-10.6h-7.3v-7.2h7.3zm0-10.6h-7.3v-7.2h7.3zm0-10.7h-7.3v-7.2h7.3zm0-10.6h-7.3v-7.2h7.3zm0-10.6h-7.3v-7.2h7.3zm0-10.6h-7.3v-7.2h7.3zm0-10.7h-7.3v-7.2h7.3zm0-10.6h-7.3v-7.2h7.3zm0-10.6h-7.3v-7.2h7.3zm0-10.7h-7.3v-7.2h7.3zm0-10.6h-7.3v-7.2h7.3zm0-10.6h-7.3v-7.2h7.3zm0-10.6h-7.3v-7.2h7.3zm0-10.7h-7.3v-7.2h7.3zm0-10.6h-7.3v-7.2h7.3zm0-10.6h-7.3v-7.2h7.3zm0-10.7h-7.3v-7.2h7.3zm0-10.6h-7.3v-7.2h7.3zm0-10.6h-7.3v-7.2h7.3zm0-10.7h-7.3v-7.2h7.3zm0-10.6h-7.3v-7.2h7.3z"/><path fill-rule="evenodd" class="a" d="m555.8 398v-11.4h-110.3v11.4 6.5 183h110.3v-183h8.8v-6.5zm-9.9 9.7v8.3h-3.2v-8.3zm-13.4 0v8.3h-3.1v-8.3zm-13.5 0v8.3h-3.1v-8.3zm-13.5 0v8.3h-3.1v-8.3zm-13.5 0v8.3h-3.1v-8.3zm-13.5 0v8.3h-3.1v-8.3zm-13.5 0v8.3h-3.1v-8.3zm-13.5 0v8.3h-3.1v-8.3zm6.7 166.9h-9.9v-17.2h9.9zm0-22.6h-9.9v-17.2h9.9zm0-22.6h-9.9v-17.2h9.9zm0-22.6h-9.9v-17.2h9.9zm0-22.6h-9.9v-17.2h9.9zm0-22.6h-9.9v-17.2h9.9zm0-22.6h-9.9v-17.2h9.9zm0-22.6h-3.1v-8.3h3.1zm13.5 158.5h-9.9v-17.2h9.9zm0-22.6h-9.9v-17.2h9.9zm0-22.6h-9.9v-17.2h9.9zm0-22.6h-9.9v-17.2h9.9zm0-22.6h-9.9v-17.2h9.9zm0-22.6h-9.9v-17.2h9.9zm0-22.6h-9.9v-17.2h9.9zm0-22.6h-3.2v-8.3h3.2zm13.4 158.5h-9.8v-17.1h9.8zm0-22.7h-9.8v-17.1h9.8zm0-22.7h-9.8v-17.1h9.8zm0-22.7h-9.8v-17.1h9.8zm0-22.7h-9.8v-17.1h9.8zm0-22.7h-9.8v-17.2h9.8zm0-22.6h-9.8v-17.2h9.8zm0-22.6h-3.1v-8.3h3.1zm13.5 158.5h-9.9v-17.1h9.9zm0-22.7h-9.9v-17.1h9.9zm0-22.7h-9.9v-17.1h9.9zm0-22.7h-9.9v-17.1h9.9zm0-22.7h-9.9v-17.1h9.9zm0-22.7h-9.9v-17.1h9.9zm0-22.7h-9.9v-17.1h9.9zm0-22.7h-3.2v-8.3h3.2zm13.4 158.6h-9.8v-17.2h9.8zm0-22.6h-9.8v-17.2h9.8zm0-22.6h-9.8v-17.2h9.8zm0-22.7h-9.8v-17.1h9.8zm0-22.7h-9.8v-17.1h9.8zm0-22.7h-9.8v-17.1h9.8zm0-22.7h-9.8v-17.1h9.8zm0-22.7h-3.1v-8.3h3.1zm13.5 158.6h-9.9v-17.2h9.9zm0-22.6h-9.9v-17.2h9.9zm0-22.6h-9.9v-17.2h9.9zm0-22.6h-9.9v-17.2h9.9zm0-22.6h-9.9v-17.2h9.9zm0-22.6h-9.9v-17.2h9.9zm0-22.6h-9.9v-17.2h9.9zm0-22.6h-3.1v-8.3h3.1zm13.4 158.5h-9.8v-17.2h9.8zm0-22.6h-9.8v-17.2h9.8zm0-22.6h-9.8v-17.2h9.8zm0-22.6h-9.8v-17.2h9.8zm0-22.6h-9.8v-17.2h9.8zm0-22.6h-9.8v-17.2h9.8zm0-22.6h-9.8v-17.2h9.8zm0-22.6h-3.1v-8.3h3.1zm13.5 158.5h-9.9v-17.1h9.9zm0-22.7h-9.9v-17.1h9.9zm0-22.7h-9.9v-17.1h9.9zm0-22.7h-9.9v-17.2h9.9zm0-22.6h-9.9v-17.2h9.9zm0-22.6h-9.9v-17.2h9.9zm0-22.6h-9.9v-17.2h9.9zm0-22.6h-3.1v-8.3h3.1z"/><path fill-rule="evenodd" class="a" d="m72.3 489.6v-5.9h-57v5.9 3.3 94.4h57v-94.4zm-5.1 5.1v4.3h-1.7v-4.3zm-6.9 0v4.3h-1.6v-4.3zm-7 0v4.3h-1.6v-4.3zm-6.9 0v4.3h-1.6v-4.3zm-7 0v4.3h-1.6v-4.3zm-6.9 0v4.3h-1.6v-4.3zm-7 0v4.3h-1.6v-4.3zm-6.9 0v4.3h-1.7v-4.3zm3.5 86h-5.1v-8.8h5.1zm0-11.7h-5.1v-8.9h5.1zm0-11.6h-5.1v-8.9h5.1zm0-11.7h-5.1v-8.8h5.1zm0-11.7h-5.1v-8.8h5.1zm0-11.7h-5.1v-8.9h5.1zm0-11.6h-5.1v-8.9h5.1zm0-11.7h-1.6v-4.3h1.6zm6.9 81.8h-5v-8.8h5zm0-11.7h-5v-8.9h5zm0-11.6h-5v-8.9h5zm0-11.7h-5v-8.8h5zm0-11.7h-5v-8.9h5zm0-11.6h-5v-8.9h5zm0-11.7h-5v-8.8h5zm0-11.7h-1.6v-4.3h1.6zm7 81.8h-5.1v-8.9h5.1zm0-11.6h-5.1v-8.9h5.1zm0-11.7h-5.1v-8.8h5.1zm0-11.7h-5.1v-8.8h5.1zm0-11.7h-5.1v-8.9h5.1zm0-11.6h-5.1v-8.9h5.1zm0-11.7h-5.1v-8.8h5.1zm0-11.7h-1.6v-4.3h1.6zm6.9 81.8h-5.1v-8.9h5.1zm0-11.6h-5.1v-8.9h5.1zm0-11.7h-5.1v-8.8h5.1zm0-11.7h-5.1v-8.9h5.1zm0-11.6h-5.1v-8.9h5.1zm0-11.7h-5.1v-8.8h5.1zm0-11.7h-5.1v-8.8h5.1zm0-11.7h-1.6v-4.3h1.6zm7 81.8h-5.1v-8.9h5.1zm0-11.7h-5.1v-8.8h5.1zm0-11.7h-5.1v-8.8h5.1zm0-11.7h-5.1v-8.9h5.1zm0-11.6h-5.1v-8.9h5.1zm0-11.7h-5.1v-8.8h5.1zm0-11.7h-5.1v-8.9h5.1zm0-11.6h-1.7v-4.3h1.7zm6.9 81.8h-5.1v-8.9h5.1zm0-11.7h-5.1v-8.8h5.1zm0-11.7h-5.1v-8.9h5.1zm0-11.6h-5.1v-8.9h5.1zm0-11.7h-5.1v-8.8h5.1zm0-11.7h-5.1v-8.8h5.1zm0-11.7h-5.1v-8.9h5.1zm0-11.7h-1.6v-4.2h1.6zm6.9 81.7h-5v-8.8h5zm0-11.7h-5v-8.8h5zm0-11.7h-5v-8.9h5zm0-11.6h-5v-8.9h5zm0-11.7h-5v-8.8h5zm0-11.7h-5v-8.9h5zm0-11.6h-5v-8.9h5zm0-11.7h-1.6v-4.2h1.6zm7 81.7h-5.1v-8.8h5.1zm0-11.7h-5.1v-8.9h5.1zm0-11.6h-5.1v-8.9h5.1zm0-11.7h-5.1v-8.8h5.1zm0-11.7h-5.1v-8.8h5.1zm0-11.7h-5.1v-8.9h5.1zm0-11.6h-5.1v-8.9h5.1zm0-11.7h-1.6v-4.3h1.6z"/><path class="b" d="m161 587.3h72.5l-9-69.7h-54.4z"/><path class="c" d="m143.1 587.3h46.6l-5.8-44.7h-34.9z"/><path class="d" d="m208.8 525.3v-10.6c0-6-4.9-10.8-10.9-10.8-6 0-10.8 4.8-10.8 10.8v10.6"/><path class="d" d="m173 549.8v6.5c0 3.6-3 6.5-6.6 6.5-3.6 0-6.6-2.9-6.6-6.5v-6.5"/><path class="e" d="m382.5 587.3h-144.7c-17.4-0.1-31.6-14.9-31.6-32.4l1.6-363.2c0-17.4 14.2-31.5 31.7-31.4l144.9 0.6c17.4 0.1 31.4 14.3 31.4 31.7l-1.6 363.3c0 17.4-14.2 31.5-31.7 31.4z"/><path class="f" d="m384.2 173.5l-28.1-0.2c-3.8 0-6.9 3.2-6.9 7.1v5.1c0 4-3.1 7.2-6.9 7.1l-54.7-0.2c-3.8 0-6.8-3.2-6.8-7.2v-5.1c0-3.9-3-7.1-6.8-7.1l-9.9-0.1-24.5-0.1c-12.3-0.1-22.2 9.8-22.3 22l-1.5 354.6c0 12.2 9.8 22.1 22 22.2l144.7 0.6c12.2 0.1 22.1-9.8 22.2-22l1.5-354.5c0-12.2-9.8-22.2-22-22.2z"/><path class="b" d="m340.9 277.2h-61.3v-3.5h61.3z"/><path class="c" d="m248.1 172.8v64.4q0 2.2-0.3 4.3 0 0.4-0.1 0.8c-1.6 10.2-8.1 17.8-15.7 17.8-7.7 0-14.1-7.6-15.7-17.8-0.3-1.6-0.4-3.3-0.4-5.1v-64.4z"/><path class="g" d="m279.7 172.8v64.4q0 2.2-0.3 4.3 0 0.4-0.1 0.8c-1.6 10.2-8.1 17.8-15.7 17.8-7.7 0-14.1-7.6-15.7-17.8q-0.1-0.4-0.1-0.8-0.3-2.1-0.3-4.3v-64.4z"/><path class="c" d="m311.3 172.8v64.4q0 2.2-0.3 4.3 0 0.4-0.1 0.8c-1.6 10.2-8 17.8-15.7 17.8-7.7 0-14.1-7.6-15.7-17.8q-0.1-0.4-0.1-0.8-0.3-2.1-0.3-4.3v-64.4z"/><path class="g" d="m342.9 172.8v64.4q0 2.2-0.3 4.3 0 0.4-0.1 0.8c-1.6 10.2-8 17.8-15.7 17.8-7.7 0-14.1-7.6-15.7-17.8q-0.1-0.4-0.1-0.8-0.3-2.1-0.3-4.3v-64.4z"/><path class="c" d="m374.5 172.8v64.4q0 2.2-0.3 4.3 0 0.4-0.1 0.8c-1.6 10.2-8 17.8-15.7 17.8-7.7 0-14.1-7.6-15.7-17.8q-0.1-0.4-0.1-0.8-0.3-2.1-0.3-4.3v-64.4z"/><path class="g" d="m406.1 172.8v64.4c0 1.8-0.1 3.5-0.4 5.1-1.6 10.2-8 17.8-15.7 17.8-7.7 0-14.1-7.6-15.7-17.8q-0.1-0.4-0.1-0.8-0.3-2.1-0.3-4.3v-64.4z"/><path class="h" d="m216.3 242.3h31.4c-1.6 10.2-8.1 17.8-15.7 17.8-7.7 0-14.1-7.6-15.7-17.8z"/><path class="h" d="m247.9 242.3h31.4c-1.6 10.2-8.1 17.8-15.7 17.8-7.7 0-14.1-7.6-15.7-17.8z"/><path class="h" d="m279.5 242.3h31.4c-1.6 10.2-8 17.8-15.7 17.8-7.7 0-14.1-7.6-15.7-17.8z"/><path class="h" d="m311.1 242.3h31.4c-1.6 10.2-8 17.8-15.7 17.8-7.7 0-14.1-7.6-15.7-17.8z"/><path class="h" d="m342.7 242.3h31.4c-1.6 10.2-8 17.8-15.7 17.8-7.7 0-14.1-7.6-15.7-17.8z"/><path class="h" d="m405.7 242.3c-1.6 10.2-8 17.8-15.7 17.8-7.7 0-14.1-7.6-15.7-17.8z"/><path class="i" d="m390 452.8h-158v-165.5h158z"/><path class="j" d="m277.9 425.7l1.9 3.8 4.1 0.6-3 2.9 0.7 4.1-3.7-1.9-3.7 1.9 0.7-4.1-3-2.9 4.2-0.6z"/><path class="j" d="m293.2 425.7l1.9 3.8 4.1 0.6-3 2.9 0.7 4.1-3.7-1.9-3.7 1.9 0.7-4.1-3-2.9 4.2-0.6z"/><path class="j" d="m308.5 425.7l1.8 3.8 4.2 0.6-3 2.9 0.7 4.1-3.7-1.9-3.7 1.9 0.7-4.1-3-2.9 4.1-0.6z"/><path class="k" d="m323.8 425.7l1.8 3.8 4.2 0.6-3 2.9 0.7 4.1-3.7-1.9-3.7 1.9 0.7-4.1-3-2.9 4.1-0.6z"/><path class="k" d="m339.1 425.7l1.8 3.8 4.2 0.6-3 2.9 0.7 4.1-3.7-1.9-3.7 1.9 0.7-4.1-3-2.9 4.1-0.6z"/><path class="c" d="m344.4 401.8h-28.7c-5 0-9.1-4.1-9.1-9.1v-1.5c0-5 4.1-9.1 9.1-9.1h28.7c5 0 9.1 4.1 9.1 9.1v1.5c0 5-4.1 9.1-9.1 9.1z"/><path class="l" d="m306.6 313.6h68.3"/><path class="l" d="m306.6 322.9h68.3"/><path class="l" d="m306.6 332.2h68.3"/><path class="l" d="m306.6 341.5h61.7"/><path class="l" d="m306.6 350.8h55.2"/><path class="l" d="m306.6 360h34.2"/><path class="b" d="m279.6 341.4c1.9-5.4 3.1-9.3 3.1-14.6v-15h-4.7v12c-1.5-1-3.1-1.5-4.8-1.5-2.7 0-5.3 1.3-7.2 3.7-2-2.4-4.6-3.7-7.3-3.7-1.7 0-3.3 0.5-4.8 1.5v-12h-4.7v15c0 5.3 1.2 9.2 3.1 14.6 1.3 3.8 1.4 4.2 0.3 6.1-8.8 14.7-6 27.3-2.5 44.6 1.4 7 1.6 8 1.9 9.7h27.9c0.4-2.2 0.5-2.5 1.9-9.8 3.7-18.1 6.1-30.1-2.5-44.5-1.1-1.9-1-2.3 0.3-6.1z"/><path class="k" d="m275.1 548.6h-38.9v-38.9h38.9z"/><path class="k" d="m321.9 548.6h-38.8v-38.9h38.8z"/><path class="k" d="m368.8 548.6h-38.9v-38.9h38.9z"/><path class="k" d="m415.6 548.6h-38.9v-38.9h38.9z"/><path fill-rule="evenodd" class="e" d="m415.4 192.6l-1.5 363.3c-0.1 17.4-14.3 31.5-31.7 31.4h-144.7c-17.5-0.1-31.7-14.9-31.7-32.4l1.6-363.2c0.1-17.4 14.3-31.5 31.7-31.4l144.9 0.6c17.4 0.1 31.5 14.3 31.4 31.7zm-9.6 3.1c0-12.2-9.8-22.2-22-22.2l-28.1-0.2c-3.8 0-6.9 3.2-6.9 7.1v5.1c0 4-3.1 7.2-6.8 7.1l-54.8-0.2c-3.8 0-6.8-3.2-6.8-7.2v-5.1c0-3.9-3-7.1-6.8-7.1l-9.8-0.1-24.6-0.1c-12.2-0.1-22.2 9.8-22.2 22l-1.5 354.6c-0.1 12.2 9.8 22.1 22 22.2l144.6 0.6c12.2 0.1 22.1-9.8 22.2-22z"/><path class="c" d="m240.3 494.1h-1.4v-3.5h1.4zm-0.2-21.8h-1.4v-3.5h1.4zm-0.4 18.8q-2 0-3.1-1.2-1-1.3-1-4.2v-1.5h2.5v1.5q0 1.5 0.3 2.4 0.4 0.8 1.2 0.8 0.8 0 1.1-0.5 0.4-0.5 0.4-1.8 0-0.7-0.2-1.4-0.2-0.6-0.6-1.3-0.4-0.6-1.1-1.2l-1.3-1.3q-1.2-1.2-1.8-2.4-0.7-1.3-0.7-2.8 0-2.3 1.1-3.4 1.1-1 3-1 1.3 0 2.1 0.5 0.9 0.6 1.3 1.9 0.5 1.2 0.5 3.5v0.9h-2.5v-1.3q0-1.6-0.3-2.5-0.3-0.8-1.1-0.8-0.7 0-1.1 0.4-0.4 0.5-0.5 1.7 0 0.6 0.2 1.2 0.2 0.6 0.6 1.2 0.4 0.6 1 1.2l1.3 1.3q1.4 1.2 2 2.6 0.7 1.4 0.7 2.9 0 2.2-1 3.4-0.9 1.2-3 1.2zm10.4 0.2q-1.5 0-2.3-0.6-0.8-0.6-1.2-1.5-0.4-1-0.4-2.2v-2.4h2.6v2.4q0 0.9 0.2 1.5 0.3 0.6 1.1 0.6 0.7 0 1-0.6 0.4-0.5 0.4-1.6v-6.6q0-1.3-0.3-2-0.3-0.6-1.1-0.6-0.6 0-1 0.6-0.4 0.5-0.4 1.7l-2.2-0.2v-11h6.9v2.4h-4.5v5.2q0.2-0.4 0.7-0.7 0.6-0.2 1.2-0.2 1.1 0 1.8 0.6 0.7 0.6 1 2.1 0.4 1.6 0.4 4.4v0.5q0 2-0.1 3.5-0.1 1.6-0.5 2.6-0.3 1-1.1 1.5-0.8 0.6-2.2 0.6zm10.8 0q-1.5 0-2.3-0.6-0.9-0.6-1.2-1.5-0.4-1-0.4-2.2v-2.4h2.5v2.4q0 0.9 0.3 1.5 0.3 0.6 1.1 0.6 0.7 0 1-0.6 0.3-0.5 0.3-1.6v-6.6q0-1.3-0.3-2-0.2-0.6-1-0.6-0.6 0-1 0.6-0.4 0.5-0.4 1.7l-2.3-0.2v-11h7v2.4h-4.6v5.2q0.2-0.4 0.8-0.7 0.5-0.2 1.1-0.2 1.1 0 1.8 0.6 0.7 0.6 1.1 2.1 0.3 1.6 0.3 4.4v0.5q0 2-0.1 3.5-0.1 1.6-0.4 2.6-0.4 1-1.2 1.5-0.7 0.6-2.1 0.6zm9.4-0.3h-2.2v-2.5h2.2zm7.7 0.3q-1.3 0-2.2-0.6-0.8-0.5-1.1-1.8-0.4-1.2-0.4-3.3v-1h2.3v0.6q0 1.7 0.1 2.6 0.2 0.8 0.5 1 0.4 0.3 1 0.3 0.8 0 1.1-0.5 0.3-0.5 0.3-1.5 0.1-0.9 0.1-2.5v-2.6q-0.4 0.3-0.9 0.5-0.6 0.2-1.2 0.2-1.5 0-2.3-0.8-0.8-0.7-1.1-2.2-0.2-1.5-0.2-3.7v-0.7q0-1.5 0.1-2.8 0.1-1.2 0.5-2.1 0.4-0.8 1.2-1.3 0.8-0.5 2.1-0.5 1.4 0 2.2 0.4 0.9 0.5 1.3 1.3 0.4 0.9 0.6 2.1 0.1 1.2 0.1 2.7v9.3q0 2.4-0.3 3.9-0.3 1.5-1.2 2.2-0.9 0.8-2.6 0.8zm-0.1-10.7q0.5 0 0.9-0.1 0.4-0.2 0.6-0.3 0.3-0.2 0.3-0.2v-5.3q0-2.1-0.3-3-0.4-0.9-1.4-0.9-0.7 0-1.1 0.4-0.3 0.4-0.5 1.2-0.1 0.8-0.1 2.2v1.6q0 1.6 0.1 2.6 0.1 1 0.4 1.4 0.4 0.4 1.1 0.4zm11 10.7q-1.9 0-2.7-0.8-0.8-0.7-1-2.1-0.2-1.4-0.2-3.4v-10.6q0-1.9 0.2-3.2 0.2-1.3 1.1-1.9 0.8-0.7 2.6-0.7 1.7 0 2.5 0.7 0.8 0.6 1 1.9 0.2 1.3 0.2 3.2v10.6q0 1.5-0.1 2.7-0.1 1.1-0.4 1.9-0.3 0.8-1.1 1.3-0.8 0.4-2.1 0.4zm-0.1-2.2q0.4 0 0.7-0.1 0.2-0.1 0.4-0.5 0.1-0.4 0.2-1.2 0-0.8 0-2.2v-10.8q0-1.7-0.1-2.4-0.1-0.8-0.4-0.9-0.3-0.2-0.8-0.2-0.4 0-0.7 0.2-0.3 0.1-0.5 0.9-0.1 0.7-0.1 2.4v10.8q0 1.4 0 2.2 0.1 0.8 0.3 1.2 0.1 0.4 0.4 0.5 0.2 0.1 0.6 0.1z"/><path class="b" d="m383.9 488.8h-17.9v-18h17.9z"/><path class="m" d="m374.9 475.2v8.6"/><path class="m" d="m379.2 479.5h-8.6"/><path class="b" d="m476.4 587.5h-91l11.3-87.4h68.3z"/><path class="c" d="m498.8 587.5h-58.4l7.3-56.1h43.8z"/><path class="d" d="m416.5 509.7v-13.3c0-7.5 6-13.6 13.5-13.6 7.5 0 13.6 6.1 13.6 13.6v13.3"/><path class="d" d="m461.3 540.4v8.1c0 4.6 3.7 8.3 8.3 8.3 4.5 0 8.2-3.7 8.2-8.3v-8.1"/></svg>